# xmcd CD database file
#
# Track frame offsets:
#	150
#	11391
#	27514
#	41762
#	55979
#	71123
#	86656
#
# Disc length: 1356 seconds
#
# Revision: 0
# Processed by: cddbd v1.5.2PL0 Copyright (c) Steve Scherf et al.
# Submitted via: CDex 1.51
#
DISCID=5a054a07
DTITLE=Rainey Qualley - Turn Down The Lights
DYEAR=2015
DGENRE=Country
TTITLE0=Turn Me On Like The Radio
TTITLE1=Dead And Gone
TTITLE2=Watered Down
TTITLE3=Never Mine
TTITLE4=Me And Johnny Cash
TTITLE5=Kiss Me Drunk
TTITLE6=Cool, Wild, Whatever
EXTD=YEAR: 2015
EXTT0=
EXTT1=
EXTT2=
EXTT3=
EXTT4=
EXTT5=
EXTT6=
PLAYORDER=
